# xmcd CD database file
#
# Track frame offsets:
#	150
#	12786
#	26546
#	39584
#	54823
#	70250
#	82765
#	100162
#	115739
#	133095
#
# Disc length: 1996 seconds
#
# Revision: 0
# Processed by: cddbd v1.5.2PL0 Copyright (c) Steve Scherf et al.
# Submitted via: jetAudio 7
#
DISCID=7007ca0a
DTITLE=Southern Comfort - Southern Comfort
DYEAR=1900
DGENRE=Blues
TTITLE0=Wild Western Cheetah
TTITLE1=Talkin 'Bout My Baby
TTITLE2=Mountain Girl
TTITLE3=Ride On Mary
TTITLE4=All Day Long
TTITLE5=Love Got Me
TTITLE6=Come And Sit Down Beside Me
TTITLE7=Get Back
TTITLE8=Who Knows
TTITLE9=Just Like A Friend
EXTD=
EXTT0=
EXTT1=
EXTT2=
EXTT3=
EXTT4=
EXTT5=
EXTT6=
EXTT7=
EXTT8=
EXTT9=
PLAYORDER=
